<?xml version="1.0" encoding="UTF-8" standalone="no"?>
<!-- Created with Inkscape (http://www.inkscape.org/) -->

<svg
   width="141.71677mm"
   height="155.11227mm"
   viewBox="0 0 141.71677 155.11227"
   version="1.1"
   id="svg5"
   xml:space="preserve"
   inkscape:version="1.2.2 (b0a8486541, 2022-12-01)"
   sodipodi:docname="roboIco.svg"
   xmlns:inkscape="http://www.inkscape.org/namespaces/inkscape"
   xmlns:sodipodi="http://sodipodi.sourceforge.net/DTD/sodipodi-0.dtd"
   xmlns="http://www.w3.org/2000/svg"
   xmlns:svg="http://www.w3.org/2000/svg"><sodipodi:namedview
     id="namedview7"
     pagecolor="#ffffff"
     bordercolor="#000000"
     borderopacity="0.25"
     inkscape:showpageshadow="2"
     inkscape:pageopacity="0.0"
     inkscape:pagecheckerboard="0"
     inkscape:deskcolor="#d1d1d1"
     inkscape:document-units="mm"
     showgrid="false"
     inkscape:zoom="0.1878554"
     inkscape:cx="260.83892"
     inkscape:cy="537.64756"
     inkscape:window-width="1024"
     inkscape:window-height="717"
     inkscape:window-x="0"
     inkscape:window-y="27"
     inkscape:window-maximized="1"
     inkscape:current-layer="layer1"
     showguides="false" /><defs
     id="defs2"><inkscape:path-effect
       effect="mirror_symmetry"
       start_point="109.08883,58.114791"
       end_point="109.08883,198.54757"
       center_point="109.08883,128.33118"
       id="path-effect1885"
       is_visible="true"
       lpeversion="1.2"
       lpesatellites=""
       mode="free"
       discard_orig_path="false"
       fuse_paths="false"
       oposite_fuse="true"
       split_items="false"
       split_open="false"
       link_styles="false" /></defs><g
     inkscape:label="Layer 1"
     inkscape:groupmode="layer"
     id="layer1"
     transform="translate(-25.618472,-74.55998)"><g
       id="g2009"
       transform="translate(-22.344738,-40.108172)"
       inkscape:export-filename="base_ico.svg"
       inkscape:export-xdpi="96"
       inkscape:export-ydpi="96"><path
         id="path422"
         style="opacity:0.17128;fill:none;stroke:#000000;stroke-width:2;stroke-linecap:round;stroke-dasharray:none;stroke-opacity:1"
         d="m 109.08528,188.13477 h 32.30144 l 0.23874,10.4128 c 35.87778,-1.92691 30.83481,-33.92403 30.83481,-33.92403 0,0 0.23498,-45.59603 0.20258,-68.026852 -0.008,-5.607703 -1.91175,-10.816668 -4.76265,-15.475794 -0.71273,-1.164781 -0.28688,-0.627875 -1.61073,-2.59254 m -1.96611,-2.34427 c -0.81632,-1.093688 -0.40117,-0.602724 -1.29144,-1.620597 m -5.57797,-5.619298 c -3.79716,-3.40831 -7.59331,-6.115658 -10.44017,-7.970928 -2.84686,-1.85527 -4.74443,-2.858462 -4.74443,-2.858462 l -17.85937,28.283545 h -15.3247 m 31.42604,50.664876 v -3.75611 -13.04158 h 28.46906 v 52.16632 h -28.46906 v -13.04158 -14.77154 m 0,-2.3797 v -2.41113 m -31.41894,48.30687 H 76.79094 l -0.23874,10.4128 c -35.87778,-1.92691 -30.83481,-33.92403 -30.83481,-33.92403 0,0 -0.23498,-45.59603 -0.20258,-68.026852 0.008,-5.607703 1.91175,-10.816668 4.76265,-15.475794 0.71273,-1.164781 0.28688,-0.627875 1.61073,-2.59254 m 1.96611,-2.34427 c 0.81632,-1.093688 0.40117,-0.602724 1.29144,-1.620597 m 5.57797,-5.619298 c 3.79716,-3.40831 7.59331,-6.115658 10.44017,-7.970928 2.84686,-1.85527 4.74443,-2.858462 4.74443,-2.858462 l 17.85937,28.283545 h 15.3247 M 77.66634,137.06322 v -3.75611 -13.04158 H 49.19728 v 52.16632 h 28.46906 v -13.04158 -14.77154 m 0,-2.3797 v -2.41113"
         sodipodi:nodetypes="ccccssccccsccccccccccccc"
         transform="translate(10.071424,64.935634)"
         inkscape:path-effect="#path-effect1885"
         inkscape:original-d="m 109.08528,188.13477 h 32.30144 l 0.23874,10.4128 c 35.87778,-1.92691 30.83481,-33.92403 30.83481,-33.92403 0,0 0.23498,-45.59603 0.20258,-68.026852 -0.008,-5.607703 -1.91175,-10.816668 -4.76265,-15.475794 -0.71273,-1.164781 -0.28688,-0.627875 -1.61073,-2.59254 m -1.96611,-2.34427 c -0.81632,-1.093688 -0.40117,-0.602724 -1.29144,-1.620597 m -5.57797,-5.619298 c -3.79716,-3.40831 -7.59331,-6.115658 -10.44017,-7.970928 -2.84686,-1.85527 -4.74443,-2.858462 -4.74443,-2.858462 l -17.85937,28.283545 h -15.3247 m 31.42604,50.664876 v -3.75611 -13.04158 h 28.46906 v 52.16632 h -28.46906 v -13.04158 c 0,0 0,-9.84769 0,-14.77154 m 0,-2.3797 c 0,-1.59695 0,-2.41113 0,-2.41113"
         class="UnoptimicedTransforms" /><path
         id="path1953"
         style="opacity:0.4;fill:none;stroke:#33bbff;stroke-width:2.19454;stroke-linecap:round;stroke-dasharray:none;stroke-opacity:1"
         d="m 181.58603,138.25832 c 1.45261,2.15576 0.98535,1.56663 1.7674,2.84471 3.1282,5.11231 5.21713,10.82794 5.22591,16.9811 0.0356,24.61262 -0.22229,72.96466 -0.22229,72.96466 0,0 1.69922,37.22375 -39.81874,37.22375 l -0.26195,-11.42563 H 118.82154 91.255428 l -0.261962,11.42563 C 48.546188,273.31477 49.28613,231.04879 49.28613,231.04879 c 0,0 -0.257835,-48.35204 -0.222284,-72.96466 0.0088,-6.15316 2.097702,-11.86879 5.225904,-16.9811 0.782056,-1.27808 0.314784,-0.68895 1.767403,-2.84471 m 123.371527,-2.57229 c -0.89572,-1.20007 -0.44019,-0.66136 -1.41705,-1.77824 m -6.12054,-6.16587 c -4.1665,-3.73984 -8.33189,-6.71052 -11.45566,-8.74625 -3.12377,-2.03572 -10.48875,-3.1365 -10.48875,-3.1365 L 130.35016,146.8938 H 118.82159 108.00486 L 88.408342,115.85917 c 0,0 -8.076821,1.10078 -11.200589,3.1365 -3.123769,2.03573 -7.289164,5.00641 -11.455666,8.74625 m -7.537585,7.94411 c 0.895722,-1.20007 0.440192,-0.66136 1.417056,-1.77824"
         sodipodi:nodetypes="cssccccccccsccccscccccsccc" /></g></g></svg>
